<?xml version="1.0" standalone="no"?>
<!DOCTYPE svg PUBLIC "-//W3C//DTD SVG 20010904//EN"
 "http://www.w3.org/TR/2001/REC-SVG-20010904/DTD/svg10.dtd">
<svg version="1.0" xmlns="http://www.w3.org/2000/svg"
 width="1536.000000pt" height="1024.000000pt" viewBox="0 0 1536.000000 1024.000000"
 preserveAspectRatio="xMidYMid meet">

<g transform="translate(0.000000,1024.000000) scale(0.100000,-0.100000)"
fill="#000000" stroke="none">
<path d="M7762 6248 c-217 -33 -370 -166 -411 -356 -33 -158 9 -308 119 -425
63 -67 141 -118 378 -248 187 -102 270 -163 322 -237 53 -74 74 -145 68 -236
-11 -164 -125 -276 -314 -307 -144 -23 -303 32 -418 146 -86 85 -149 213 -165
337 -3 27 -10 49 -16 48 -14 0 -18 -288 -6 -370 13 -81 39 -107 159 -150 223
-81 532 -77 701 9 170 87 269 235 277 413 10 232 -108 379 -459 570 -333 181
-407 241 -448 361 -39 113 -3 247 88 327 101 88 292 107 422 41 35 -18 86 -55
112 -82 57 -58 124 -186 141 -270 6 -32 17 -59 23 -59 11 0 12 280 0 356 -5
38 -10 44 -53 62 -167 71 -351 96 -520 70z"/>
<path d="M4858 6201 c112 -39 111 -36 334 -661 71 -201 183 -513 248 -695 65
-181 126 -356 136 -387 10 -32 23 -58 29 -58 7 0 56 129 110 288 222 654 348
1017 355 1025 4 4 28 -47 53 -115 75 -201 279 -768 357 -990 40 -115 78 -208
84 -208 6 0 67 168 135 373 292 879 429 1269 466 1327 30 48 81 90 117 97 77
15 21 23 -171 23 -134 0 -211 -4 -211 -10 0 -5 20 -10 44 -10 94 0 133 -76
101 -202 -27 -110 -379 -1148 -386 -1141 -3 5 -38 96 -77 203 -381 1053 -367
1013 -358 1066 8 39 53 74 96 74 14 0 32 5 40 10 10 6 -92 10 -298 10 -206 0
-311 -3 -307 -10 3 -5 16 -10 27 -10 12 0 41 -9 64 -21 55 -26 89 -81 148
-237 54 -142 58 -104 -36 -378 -36 -104 -105 -304 -153 -444 -48 -140 -90
-258 -94 -262 -4 -4 -35 70 -70 165 -100 272 -338 949 -356 1012 -30 101 -4
153 80 163 25 2 48 9 51 13 3 5 -131 9 -303 8 l-308 0 53 -18z"/>
<path d="M8610 6210 c0 -5 18 -10 40 -10 59 0 98 -24 121 -73 18 -40 19 -77
19 -799 0 -668 -2 -762 -16 -797 -19 -47 -51 -70 -119 -87 -43 -11 -6 -12 258
-13 169 -1 307 3 307 7 0 4 -17 9 -37 10 -51 4 -95 31 -115 72 -16 32 -18 74
-18 428 l0 392 481 0 480 0 -3 -397 c-3 -357 -5 -401 -21 -430 -20 -38 -43
-52 -112 -68 -43 -11 -8 -13 258 -14 169 -1 307 2 307 7 0 4 -16 8 -35 9 -46
2 -84 22 -109 56 -21 28 -21 35 -24 801 -2 604 0 782 10 812 16 49 67 84 119
84 22 0 39 5 39 10 0 6 -109 10 -306 10 -201 0 -303 -3 -299 -10 3 -5 21 -10
39 -10 18 0 48 -10 67 -23 64 -43 64 -44 64 -437 l0 -355 -477 -3 -478 -3 1
353 c0 246 4 363 12 388 14 39 67 80 106 80 14 0 33 5 41 10 10 6 -90 10 -292
10 -199 0 -308 -4 -308 -10z"/>
</g>
</svg>
